<?xml version="1.0" encoding="UTF-8"?>
<svg width="40px" height="40px" viewBox="0 0 40 40" version="1.1" xmlns="http://www.w3.org/2000/svg" xmlns:xlink="http://www.w3.org/1999/xlink">
    <!-- Generator: Sketch 52.6 (67491) - http://www.bohemiancoding.com/sketch -->
    <title>github</title>
    <desc>Created with Sketch.</desc>
    <g id="github" stroke="none" stroke-width="1" fill="none" fill-rule="evenodd">
        <path d="M20,0 C9.01489258,0 0,9.01489258 0,20 C0,29.3740845 6.57775875,37.8894043 15.3125,40 L15.3125,33.3831787 C14.4470215,33.5726929 13.6505127,33.578186 12.7694702,33.3184814 C11.5875244,32.9696655 10.6271362,32.182312 9.91424562,30.9817505 C9.45983891,30.2151489 8.65448,29.3838501 7.81433109,29.4448852 L7.60833742,27.1102905 C9.42504883,26.9546509 10.9967041,28.2171631 11.9296265,29.7845459 C12.3440552,30.4815673 12.8210449,30.8901977 13.4332275,31.0708618 C14.0249634,31.2451172 14.6603394,31.1614991 15.4006958,30.8999634 C15.5865478,29.4177246 16.265564,28.862915 16.7785645,28.081665 L16.7785645,28.0804444 C11.5692139,27.3034668 9.49310305,24.5397949 8.66912844,22.3583984 C7.57720945,19.4619751 8.16314695,15.8435059 10.0939941,13.5568238 C10.1315308,13.512268 10.1992798,13.3956909 10.1730347,13.314209 C9.28771969,10.6399536 10.3665161,8.42773438 10.406189,8.19305422 C11.4279175,8.4951782 11.5939331,7.88909914 14.8443603,9.86389156 L15.406189,10.201416 C15.6411743,10.3414917 15.5673218,10.2615356 15.8023071,10.2438355 C17.1594238,9.87518313 18.5900879,9.67163086 19.9996948,9.65332031 C21.4199829,9.67163086 22.8414917,9.87518313 24.2547608,10.2587891 L24.4366455,10.2770996 C24.4207764,10.2746582 24.486084,10.265503 24.5956421,10.2001953 C28.6560059,7.74078367 28.5101319,8.54461672 29.5989991,8.19061281 C29.6383667,8.42559813 30.7028198,10.6738281 29.8269653,13.314209 C29.7088623,13.6779785 33.347168,17.0095825 31.3305664,22.3574829 C30.5065918,24.5397949 28.4307861,27.3034668 23.2214355,28.0804444 L23.2214355,28.081665 C23.8891602,29.0994262 24.6914673,29.6408081 24.6871948,31.7404175 L24.6871948,40 C33.4222412,37.8894043 39.9996948,29.3740845 39.9996948,20 C40,9.01489258 30.9851074,8.8817842e-15 20,0 Z" id="Path" fill="#000000"></path>
    </g>
</svg>