<?xml version="1.0" encoding="UTF-8"?>
<svg width="40px" height="40px" viewBox="0 0 40 40" version="1.1" xmlns="http://www.w3.org/2000/svg" xmlns:xlink="http://www.w3.org/1999/xlink">
    <!-- Generator: Sketch 52.6 (67491) - http://www.bohemiancoding.com/sketch -->
    <title>latest-posts</title>
    <desc>Created with Sketch.</desc>
    <g id="latest-posts" stroke="none" stroke-width="1" fill="none" fill-rule="evenodd">
        <g id="001-title" transform="translate(4.000000, 5.000000)" fill="#000000">
            <path d="M16,10.6666667 L6.66666667,10.6666667 C5.93066667,10.6666667 5.33333333,11.264 5.33333333,12 L5.33333333,14 C5.33333333,14.736 5.93066667,15.3333333 6.66666667,15.3333333 C7.40266667,15.3333333 8,14.736 8,14 L8,13.3333333 L10,13.3333333 L10,21.3333333 L9.33333333,21.3333333 C8.59733333,21.3333333 8,21.9306667 8,22.6666667 C8,23.4026667 8.59733333,24 9.33333333,24 L13.3333333,24 C14.0693333,24 14.6666667,23.4026667 14.6666667,22.6666667 C14.6666667,21.9306667 14.0693333,21.3333333 13.3333333,21.3333333 L12.6666667,21.3333333 L12.6666667,13.3333333 L14.6666667,13.3333333 L14.6666667,14 C14.6666667,14.736 15.264,15.3333333 16,15.3333333 C16.736,15.3333333 17.3333333,14.736 17.3333333,14 L17.3333333,12 C17.3333333,11.264 16.736,10.6666667 16,10.6666667 Z" id="Path"></path>
            <path d="M25.3333333,13.3333333 L21.3333333,13.3333333 C20.5973333,13.3333333 20,12.736 20,12 C20,11.264 20.5973333,10.6666667 21.3333333,10.6666667 L25.3333333,10.6666667 C26.0693333,10.6666667 26.6666667,11.264 26.6666667,12 C26.6666667,12.736 26.0693333,13.3333333 25.3333333,13.3333333 Z" id="Path"></path>
            <path d="M25.3333333,18.6666667 L21.3333333,18.6666667 C20.5973333,18.6666667 20,18.0693333 20,17.3333333 C20,16.5973333 20.5973333,16 21.3333333,16 L25.3333333,16 C26.0693333,16 26.6666667,16.5973333 26.6666667,17.3333333 C26.6666667,18.0693333 26.0693333,18.6666667 25.3333333,18.6666667 Z" id="Path"></path>
            <path d="M25.3333333,24 L21.3333333,24 C20.5973333,24 20,23.4026667 20,22.6666667 C20,21.9306667 20.5973333,21.3333333 21.3333333,21.3333333 L25.3333333,21.3333333 C26.0693333,21.3333333 26.6666667,21.9306667 26.6666667,22.6666667 C26.6666667,23.4026667 26.0693333,24 25.3333333,24 Z" id="Path"></path>
            <path d="M28,0 L4,0 C1.79466667,0 0,1.79466667 0,4 L0,25.3333333 C0,27.5386667 1.79466667,29.3333333 4,29.3333333 L28,29.3333333 C30.2053333,29.3333333 32,27.5386667 32,25.3333333 L32,4 C32,1.79466667 30.2053333,0 28,0 Z M28,26.6666667 L4,26.6666667 C3.26533333,26.6666667 2.66666667,26.0693333 2.66666667,25.3333333 L2.66666667,6.66666667 L29.3333333,6.66666667 L29.3333333,25.3333333 C29.3333333,26.0693333 28.7346667,26.6666667 28,26.6666667 Z" id="Shape" fill-rule="nonzero"></path>
        </g>
    </g>
</svg>