<?xml version="1.0" encoding="UTF-8"?>
<svg width="40px" height="40px" viewBox="0 0 40 40" version="1.1" xmlns="http://www.w3.org/2000/svg" xmlns:xlink="http://www.w3.org/1999/xlink">
    <!-- Generator: Sketch 52.6 (67491) - http://www.bohemiancoding.com/sketch -->
    <title>latest-projects</title>
    <desc>Created with Sketch.</desc>
    <g id="latest-projects" stroke="none" stroke-width="1" fill="none" fill-rule="evenodd">
        <g id="002-start-up" transform="translate(5.000000, 5.000000)" fill="#000000">
            <path d="M4.37088819,19.1858553 C4.20138889,19.5239401 4.26740678,19.9326115 4.53444807,20.1998812 L4.74894918,20.4143823 C5.3686952,19.6799616 6.09100877,18.8829496 6.96705959,18.0071272 C7.02896561,17.9452211 7.09269918,17.915296 7.15483368,17.8581871 L5.7748538,16.4779788 C4.97258772,17.9290022 4.50475146,18.920413 4.37088819,19.1858553 Z" id="Path"></path>
            <path d="M11.9291392,22.9692069 C11.0510325,23.8473136 10.2560764,24.5709978 9.52576754,25.1912006 L9.81633772,25.4817708 C10.0858918,25.7513249 10.4984467,25.8162006 10.8376736,25.6416758 C11.2920322,25.4075292 12.0065789,25.0712719 13.5233918,24.2265168 L12.0783077,22.7814327 C12.0211988,22.8437957 11.9912737,22.9073008 11.9291392,22.9692069 Z" id="Path"></path>
            <path d="M11.4615315,18.4758772 C10.8276225,17.8419682 9.04491047,18.4103161 8.20746526,19.2475329 C5.40593018,22.049068 4.14062503,24.0353161 3.5725055,25.2081049 C3.40963088,25.5441338 3.47747626,25.946409 3.74154789,26.2104806 C4.00607637,26.4752375 4.4090369,26.5423977 4.74529421,26.379523 C5.89181287,25.8228253 7.85384684,24.5634594 10.6887336,21.7288012 C11.6095578,20.8075201 12.0639163,19.0784905 11.4622167,18.4765625 L11.4615315,18.4758772 Z" id="Path"></path>
            <path d="M2.73802994,11.6790022 L0.256990117,14.160042 C-0.0235288889,14.4405611 -0.0810946784,14.8748173 0.117644386,15.2188414 C0.311586257,15.5582968 0.717744912,15.7312226 1.10425801,15.6277412 C2.44517544,15.2681835 3.62504567,15.1162737 4.41954497,15.3200384 C5.54984468,13.3104898 6.76443713,11.4606177 8.05075842,9.78024491 C7.30674339,9.30327123 4.84809029,9.56894187 2.73802994,11.6790022 Z" id="Path"></path>
            <path d="M14.8476334,29.847405 C15.1854898,30.0182749 15.5946181,29.952257 15.8621163,29.6845304 L18.3433845,27.2034905 C20.2643001,25.2821181 20.6023849,22.8031342 20.1665296,22.017087 C18.2924433,23.4295047 16.3939145,24.6221674 14.6226243,25.6206597 C14.7448374,26.3107639 14.6635143,26.9803088 14.3745432,28.9357182 C14.3181195,29.3142361 14.5136605,29.6804185 14.8476334,29.847405 Z" id="Path"></path>
            <path d="M17.4152504,8.79934211 C16.3893457,9.82547515 16.3893457,11.4946546 17.4152504,12.5207877 C18.4413834,13.5469207 20.1107913,13.5469207 21.1369243,12.5207877 C22.1630574,11.4946546 22.1630574,9.82547515 21.1369243,8.79934211 C20.1107913,7.77320906 18.4413834,7.77320906 17.4152504,8.79934211 Z" id="Path"></path>
            <path d="M29.889894,0.85572 C29.8583699,0.421920702 29.5129751,0.0790387135 29.0805464,0.0466008772 C26.9261696,-0.115588421 24.7802449,0.149396959 22.6768092,0.792671813 C22.8351151,2.23775585 23.5825567,3.80162643 24.8585983,5.07766813 C26.1499451,6.36878655 27.7563048,7.11599965 29.2272021,7.25580228 C29.7937226,5.27046784 30.0623629,3.1441886 29.889894,0.85572 Z" id="Path"></path>
            <path d="M23.6181926,6.31830228 C22.1584887,4.8585983 21.2671327,3.10786731 20.9811312,1.40328035 C15.713633,3.56359649 10.671144,8.28125 6.68654058,14.9086257 L8.66616409,16.8882492 C10.0187317,16.3390899 11.6607274,16.1940333 12.7021656,17.235243 C13.7449744,18.2782804 13.5971765,19.9195906 13.0482456,21.2703308 L15.0929733,23.3150585 C20.1921144,20.2419134 26.1287006,15.4002193 28.6531433,8.95856175 C26.906981,8.6947186 25.1016539,7.80176351 23.6181926,6.31830228 Z M22.3773301,13.7614218 C20.667489,15.4712628 17.8849141,15.4712628 16.1748447,13.7614218 C14.4647752,12.0513523 14.4647752,9.26854901 16.1748447,7.55870795 C17.8849141,5.84886696 20.667489,5.84886696 22.3773301,7.55870795 C24.0873995,9.26877743 24.0873995,12.0513523 22.3773301,13.7614218 Z" id="Shape" fill-rule="nonzero"></path>
        </g>
    </g>
</svg>