<?xml version="1.0" encoding="UTF-8"?>
<svg width="40px" height="40px" viewBox="0 0 40 40" version="1.1" xmlns="http://www.w3.org/2000/svg" xmlns:xlink="http://www.w3.org/1999/xlink">
    <!-- Generator: Sketch 52.6 (67491) - http://www.bohemiancoding.com/sketch -->
    <title>linkedin</title>
    <desc>Created with Sketch.</desc>
    <g id="linkedin" stroke="none" stroke-width="1" fill="none" fill-rule="evenodd">
        <path d="M20,0 C8.95599367,0 0,8.95599367 0,20 C0,31.0440063 8.95599367,40 20,40 C31.0440063,40 40,31.0440063 40,20 C40,8.95599367 31.0440063,0 20,0 Z M14.1882324,30.234375 L9.3173218,30.234375 L9.3173218,15.5801391 L14.1882324,15.5801391 L14.1882324,30.234375 Z M11.7529297,13.5791016 L11.7211914,13.5791016 C10.0866699,13.5791016 9.02954102,12.4539184 9.02954102,11.0476684 C9.02954102,9.60968016 10.1190186,8.515625 11.7852783,8.515625 C13.4515381,8.515625 14.4769287,9.60968016 14.508667,11.0476684 C14.508667,12.4539184 13.4515381,13.5791016 11.7529297,13.5791016 Z M31.751709,30.234375 L26.8814087,30.234375 L26.8814087,22.3947144 C26.8814087,20.4244995 26.1761475,19.0808105 24.4137573,19.0808105 C23.0682373,19.0808105 22.2668457,19.9871827 21.9146728,20.8621216 C21.7858887,21.175232 21.7544555,21.612854 21.7544555,22.0507812 L21.7544555,30.234375 L16.8838501,30.234375 C16.8838501,30.234375 16.9476319,16.9549561 16.8838501,15.5801391 L21.7544555,15.5801391 L21.7544555,17.6550293 C22.4017334,16.6564941 23.5598755,15.2362061 26.144104,15.2362061 C29.3487548,15.2362061 31.751709,17.3306274 31.751709,21.831665 L31.751709,30.234375 Z" id="Shape" fill="#000000" fill-rule="nonzero"></path>
    </g>
</svg>