<?xml version="1.0" encoding="UTF-8"?>
<svg width="40px" height="40px" viewBox="0 0 40 40" version="1.1" xmlns="http://www.w3.org/2000/svg" xmlns:xlink="http://www.w3.org/1999/xlink">
    <!-- Generator: Sketch 52.6 (67491) - http://www.bohemiancoding.com/sketch -->
    <title>menu</title>
    <desc>Created with Sketch.</desc>
    <g id="menu" stroke="none" stroke-width="1" fill="none" fill-rule="evenodd">
        <g transform="translate(1.000000, 1.000000)" fill="#000000" fill-rule="nonzero" id="Shape">
            <path d="M19,0 C8.52305859,0 0,8.52305859 0,19 C0,29.4769414 8.52305859,38 19,38 C29.4769414,38 38,29.4769414 38,19 C38,8.52305859 29.4769414,0 19,0 Z M26.9166914,26.9166914 L11.0833086,26.9166914 C10.20775,26.9166914 9.5,26.2073828 9.5,25.3333828 C9.5,24.4593828 10.20775,23.7500742 11.0833086,23.7500742 L26.9166172,23.7500742 C27.7921758,23.7500742 28.4999258,24.4593828 28.4999258,25.3333828 C28.5,26.2073086 27.79225,26.9166914 26.9166914,26.9166914 Z M26.9166914,20.5833086 L11.0833086,20.5833086 C10.20775,20.5833086 9.5,19.874 9.5,19 C9.5,18.126 10.20775,17.4166914 11.0833086,17.4166914 L26.9166172,17.4166914 C27.7921758,17.4166914 28.4999258,18.126 28.4999258,19 C28.4999258,19.874 27.79225,20.5833086 26.9166914,20.5833086 Z M26.9166914,14.25 L11.0833086,14.25 C10.20775,14.25 9.5,13.5406914 9.5,12.6666914 C9.5,11.7926914 10.20775,11.0833828 11.0833086,11.0833828 L26.9166172,11.0833828 C27.7921758,11.0833828 28.4999258,11.7926914 28.4999258,12.6666914 C28.4999258,13.5406914 27.79225,14.25 26.9166914,14.25 Z"></path>
        </g>
    </g>
</svg>