<?xml version="1.0" encoding="UTF-8"?>
<svg width="40px" height="40px" viewBox="0 0 40 40" version="1.1" xmlns="http://www.w3.org/2000/svg" xmlns:xlink="http://www.w3.org/1999/xlink">
    <!-- Generator: Sketch 52.6 (67491) - http://www.bohemiancoding.com/sketch -->
    <title>stackoverflow</title>
    <desc>Created with Sketch.</desc>
    <g id="stackoverflow" stroke="none" stroke-width="1" fill="none" fill-rule="evenodd">
        <path d="M20,40 C8.954305,40 0,31.045695 0,20 C0,8.954305 8.954305,0 20,0 C31.045695,0 40,8.954305 40,20 C40,31.045695 31.045695,40 20,40 Z M14.5,21.7023948 L25.0577941,24 L25.5,21.8143455 L14.9422059,19.5 L14.5,21.7023948 Z M14.5,24.5 L14.5,26.5 L25,26.5 L25,24.5 L14.5,24.5 Z M16.5,15.9614317 L26.1095229,20.5 L27,18.5506017 L17.3854575,14 L16.5,15.9614317 Z M25.7515,20.75075 L25.75,20.74925 L25.7485,20.75075 L25.7515,20.75075 Z M10,22 L10,31 L29.5,31 L29.5,22 L27.3304813,22 L27.3304813,28.7497375 L12.1695187,28.7497375 L12.1695187,22 L10,22 Z M19,11.2423442 L27.5764146,18.5 L29,16.7576558 L20.4235854,9.5 L19,11.2423442 Z M31,15.1323306 L24.298261,6 L22.5,7.3676694 L29.201739,16.5 L31,15.1323306 Z" id="Combined-Shape" fill="#000000"></path>
    </g>
</svg>